<svg width="93" height="31" viewBox="0 0 93 31" fill="none" xmlns="http://www.w3.org/2000/svg">
<path fill-rule="evenodd" clip-rule="evenodd" d="M4.28 24.02H10.4V15.78H16V10.58H10.4V8.7C10.4 7.87334 10.64 7.22 11.12 6.74C11.6 6.26 12.2533 6.02 13.08 6.02C13.5333 6.02 13.92 6.1 14.24 6.26C14.5867 6.39333 14.8933 6.59333 15.16 6.86L19 3.02C18.2533 2.24667 17.3733 1.64667 16.36 1.22C15.3733 0.766668 14.2133 0.540001 12.88 0.540001C11.12 0.540001 9.6 0.913334 8.32 1.66C7.04 2.38 6.04 3.38 5.32 4.66C4.62667 5.91334 4.28 7.32667 4.28 8.9V10.58H0V15.78H4.28V24.02ZM16.5987 10.58V30.02H22.7188V19.34C22.7188 18.0867 23.0121 17.1533 23.5987 16.54C24.2121 15.9 25.0254 15.58 26.0387 15.58C26.5454 15.58 26.9987 15.66 27.3987 15.82C27.7987 15.98 28.1321 16.2067 28.3987 16.5L32.0387 11.9C31.5054 11.3133 30.8787 10.8867 30.1587 10.62C29.4654 10.3267 28.6521 10.18 27.7188 10.18C25.5854 10.18 23.9187 10.8067 22.7188 12.06V10.58H16.5987ZM35.1222 29.14C36.7489 30.02 38.5622 30.46 40.5622 30.46C42.5889 30.46 44.4022 30.02 46.0022 29.14C47.6022 28.2333 48.8689 27.0067 49.8022 25.46C50.7355 23.9133 51.2022 22.18 51.2022 20.26C51.2022 18.34 50.7355 16.62 49.8022 15.1C48.8689 13.5533 47.6022 12.34 46.0022 11.46C44.4022 10.58 42.5889 10.14 40.5622 10.14C38.5355 10.14 36.7222 10.5933 35.1222 11.5C33.5222 12.38 32.2555 13.58 31.3222 15.1C30.3889 16.62 29.9222 18.34 29.9222 20.26C29.9222 22.18 30.3889 23.9133 31.3222 25.46C32.2555 27.0067 33.5222 28.2333 35.1222 29.14ZM42.8822 24.34C42.2155 24.7133 41.4422 24.9 40.5622 24.9C39.7089 24.9 38.9489 24.7133 38.2822 24.34C37.6155 23.94 37.0955 23.3933 36.7222 22.7C36.3489 21.98 36.1622 21.18 36.1622 20.3C36.1622 19.3933 36.3489 18.5933 36.7222 17.9C37.0955 17.2067 37.6155 16.6733 38.2822 16.3C38.9489 15.9 39.7089 15.7 40.5622 15.7C41.4422 15.7 42.2022 15.9 42.8422 16.3C43.5089 16.6733 44.0289 17.2067 44.4022 17.9C44.7755 18.5667 44.9622 19.3533 44.9622 20.26C44.9622 21.1667 44.7755 21.98 44.4022 22.7C44.0555 23.3933 43.5489 23.94 42.8822 24.34ZM65.1691 18.94V30.02H71.2891V17.58C71.2891 16.2467 70.9691 15.02 70.3291 13.9C69.6891 12.78 68.8091 11.8867 67.6891 11.22C66.5957 10.5267 65.3291 10.18 63.8891 10.18C62.3957 10.18 61.0491 10.5 59.8491 11.14C59.3335 11.4095 58.8668 11.7305 58.4491 12.103V10.58H52.3291V30.02H58.4491V18.94C58.4491 18.2733 58.5957 17.6867 58.8891 17.18C59.1824 16.6467 59.5824 16.2467 60.0891 15.98C60.5957 15.6867 61.1824 15.54 61.8491 15.54C62.8091 15.54 63.5957 15.86 64.2091 16.5C64.8491 17.1133 65.1691 17.9267 65.1691 18.94ZM76.6597 29.1C78.0997 29.98 79.7397 30.42 81.5797 30.42C82.913 30.42 84.1264 30.1533 85.2197 29.62C85.7951 29.3253 86.3151 28.9826 86.7797 28.5918V30.02H92.7797V0.980002H86.6597V11.8421C86.2156 11.4922 85.7223 11.1914 85.1797 10.94C84.113 10.4333 82.913 10.18 81.5797 10.18C79.7397 10.18 78.0997 10.62 76.6597 11.5C75.2463 12.38 74.1263 13.58 73.2997 15.1C72.4997 16.62 72.0997 18.3533 72.0997 20.3C72.0997 22.2467 72.4997 23.98 73.2997 25.5C74.1263 27.02 75.2463 28.22 76.6597 29.1ZM84.9397 24.34C84.2997 24.7133 83.5397 24.9 82.6597 24.9C81.833 24.9 81.0863 24.7 80.4197 24.3C79.753 23.9 79.233 23.3533 78.8597 22.66C78.4863 21.9667 78.2997 21.18 78.2997 20.3C78.2997 19.42 78.4863 18.6333 78.8597 17.94C79.2597 17.2467 79.7797 16.7 80.4197 16.3C81.0863 15.9 81.8463 15.7 82.6997 15.7C83.553 15.7 84.2997 15.9 84.9397 16.3C85.6063 16.7 86.113 17.2467 86.4597 17.94C86.833 18.6067 87.0197 19.3933 87.0197 20.3C87.0197 21.2067 86.833 22.0067 86.4597 22.7C86.0863 23.3933 85.5797 23.94 84.9397 24.34Z" fill="#0AAC49"/>
</svg>
